<svg version="1.1" id="Layer_1" xmlns="http://www.w3.org/2000/svg" xmlns:xlink="http://www.w3.org/1999/xlink" x="0px" y="0px" width="1200px" height="1200px" viewBox="0 0 1200 1200" enable-background="new 0 0 1200 1200" xml:space="preserve">
<path d="M739.273,482.247c1.358-8.763,19.406-41.644,23.856-50.54c4.444-8.895,24.265-42.454,24.26-71.97
	c-0.005-9.31-2.228-8.69-2.026-12.936c0.207-4.248-2.832-8.091-4.848-7.481c-2.021,0.607,0.6-11.928-4.857-12.328
	c-5.453-0.408-7.882-15.368-12.125-20.624c-4.244-5.258-10.311-12.532-15.566-38.815c-2.434-12.173-3.639-22.236-13.339-29.921
	c-3.706-2.928-0.207-7.279-3.644-9.499c-3.438-2.228-27.092-12.334-55.594-16.579c-2.866-0.425-16.58-4.651-21.227-8.693
	c-4.655-4.044-12.332-13.143-12.332-13.143l4.038-23.045c0,0,12.336-9.499,13.147-21.024c0.206-3.023-3.846-5.661-7.075-3.434
	c-3.235,2.222,12.532-26.487-1.013-47.105c-1.695-2.577,9.906-19.409-0.807-28.709c-4.301-3.729-12.739-15.566-48.322-16.375
	c0,0-44.093-2.43-44.069,41.649c0,6.185-4.853,19.808-4.853,33.555c0,7.683-14.957-13.342-8.491,21.024
	c0.753,3.977,0.407,12.94,12.937,12.94c3.834,0,3.638,16.577,3.234,23.048c-0.403,6.468-2.016,13.342-2.016,13.342
	s-8.766,7.008-15.777,21.56c-1.849,3.84-5.117,9.165-10.239,12.134c-5.122,2.962-46.901,24.257-53.366,34.5
	c-6.471,10.244-20.487,16.442-22.105,58.496c-0.22,5.681-8.898,46.093-6.738,56.066c2.155,9.97,5.756,55.87,6.465,67.117
	c0.308,4.843-8.016,1.008-3.974,9.501c1.349,2.83,4.449,3.235,4.449,3.235s-5.86,5.458-3.84,12.735
	c0.907,3.264,4.042,2.021,4.042,2.021s-0.61,5.664-0.404,9.907c0.202,4.243-9.302,1.212-9.096,7.479
	c0.197,6.269,2.424,22.848,14.756,26.081c2.976,0.78-0.807,21.224,16.982,83.895c0.845,2.979,6.067,27.7,5.861,37.604
	c-0.202,9.904-5.055,28.707,0.604,48.924c0.849,3.025,4.247,8.693,4.247,8.693s-8.083,15.564-8.49,37.803l-26.75-2.695
	c0,0-13.479,50.674-15.102,57.146l-22.637,3.236l2.691,78.17l-6.196,20.482c0,0-2.961,4.043,0,5.66
	c2.967,1.619,12.399,6.199,12.399,6.199s4.584,59.566,6.201,64.961l146.099-4.85c0,0,7.814,34.502,17.788,62.801
	c1.446,4.109,5.387,19.949,5.387,19.949s-2.827,2.295-1.21,8.154c1.613,5.863,4.651,8.49,9.907,7.482
	c2.804-0.543,3.23,18.598,1.21,22.439c-2.021,3.838-25.474,28.301-26.28,33.963c-0.812,5.658-5.865,8.895-4.853,14.758
	c1.013,5.859-1.618,14.553,2.831,16.777c4.445,2.223,42.452,5.055,61.259-6.264c3.95-2.383,10.306-8.496,12.326-8.496
	c2.026,0,2.026-12.328,2.026-12.328s16.171-3.641,16.171-36.592c0-7.482-6.067-33.152-3.639-37.805
	c2.425-4.648,2.425-8.287,2.425-8.287s-4.646-1.215-4.646-2.023s-5.061-32.545-1.824-38.412
	c3.235-5.859,12.537-12.736,12.537-28.908c0-4.047,10.104-10.307,9.902-16.98c-0.201-6.672,1.215-8.49,1.215-8.49
	s35.986-51.352,32.343-79.246c-0.417-3.219,10.108-11.326,7.483-23.658c-1.301-6.1,4.853-5.457,2.832-10.914
	c-2.021-5.459-5.865-7.279-4.047-12.939c1.82-5.656,10.315-14.152,8.29-40.232c-0.499-6.451,0.604-55.594,2.429-61.051
	c1.814-5.457-0.206-48.113-1.215-58.627c-1.008-10.514-1.617-37.197-10.108-61.459c-1.258-3.602,6.063-12.328,6.063-12.328
	s-11.727-62.269-8.89-73.993C727.864,502.583,734.824,510.956,739.273,482.247z M517.709,455.698h2.688v29.654l-5.506-1.085
	c0,0,2.271-4.579,2.818-10.51c0.532-5.928-2.43-4.579-5.127-9.435C509.885,459.47,517.709,455.698,517.709,455.698z M491.289,734.68
	l4.58-36.654l3.508,36.654H491.289z M521.75,736.301l-17.256-1.621l-2.967-36.654c0,0,2.16-1.08,6.74,0
	c4.588,1.076,8.356,5.119,13.482,4.85c5.117-0.266,5.386-3.504,6.192-1.08C528.754,704.225,521.75,736.301,521.75,736.301z
	 M528.211,607.59c-2.832,2.424-2.418,6.873-2.016,13.344c0.398,6.469,4.041,5.66,4.041,5.66s-0.807,10.51-4.041,7.273
	c-3.24-3.23-9.303-19.404-11.189-28.703c-1.881-9.303-4.161-84.738,0-85.852c9.572-2.561,5.391-22.913,5.391-22.913
	s7.814,6.874,7.814,12.535c0,5.662,1.219,20.219,1.623,28.705c0.402,8.493,3.234,14.559,3.234,14.559s2.425,20.217-2.832,25.067
	C524.98,582.118,531.043,605.164,528.211,607.59z M530.371,738.455v-2.154l2.429-32.076l14.823,33.15L530.371,738.455z
	 M661.101,840.615c-2.155,8.627-5.117,8.898-6.735,8.898c-1.617,0-15.906-63.889-18.595-77.904
	c-2.524-13.098-1.512-65.043-1.368-71.775c0-0.465,0.015-0.732,0.015-0.732s-0.009,0.262-0.015,0.732
	c0,2.029,0.298,7.826,3.519,11.664c11.323,13.482,20.755,61.729,19.954,68.467c-0.812,6.74,3.772,31.004,3.226,34.777
	C660.563,818.514,663.261,831.988,661.101,840.615z M721.092,441.206c-2.045,4.565-13.556,6.876-13.556,6.876
	s8.083-42.856,7.276-52.762c-0.811-9.907,1.013-35.583,1.013-35.583c0.403,0.81,5.05,6.065,7.071,6.065c2.025,0-4.042,4.245,0,9.904
	c4.041,5.662,3.441,6.876,3.441,6.876S723.908,434.942,721.092,441.206z" style="fill: rgb(36, 36, 40);"></path>
</svg>