<svg version="1.1" id="Layer_1" xmlns="http://www.w3.org/2000/svg" xmlns:xlink="http://www.w3.org/1999/xlink" x="0px" y="0px" width="1200px" height="1200px" viewBox="0 0 1200 1200" enable-background="new 0 0 1200 1200" xml:space="preserve">
<path fill-rule="evenodd" clip-rule="evenodd" d="M490.502,572.903c0.478,7.766,0.758,14.855,1.38,21.917
	c1.035,11.719,2.215,23.419,3.469,35.111c1.174,10.933,2.424,21.861,3.819,32.768c1.218,9.546,2.728,19.058,4.028,28.593
	c1.434,10.454,2.744,20.924,4.16,31.385c1.09,8.046,2.264,16.083,3.4,24.124c0.061,0.445,0.207,0.887,0.217,1.334
	c0.314,15.303,4.02,30.131,6.364,45.146c0.089,0.572-0.082,1.185-0.187,2.455c-18.49,3.945-37.252,7.246-55.614,12.061
	c-18.767,4.921-37.534,3.343-56.406,2.63c-10.756-0.404-21.519-0.692-32.276-1.021c-1.645-0.047-3.289-0.004-5.133-0.004
	c1.231-8.928,2.484-17.374,3.544-25.844c1.294-10.331,2.441-20.681,3.626-31.027c1.818-15.876,3.605-31.76,5.427-47.633
	c0.331-2.875-0.613-4.162-3.748-4.08c-7.146,0.181-14.334-0.349-21.433,0.25c-3.595,0.305-3.906-3.006-6.31-3.781
	c-5.353-1.734-11.138-2.916-15.776-5.852c-4.922-3.112-10.091-4.051-15.404-5.439c-1.602-0.42-3.035-3.297-3.537-5.306
	c-0.241-0.944,1.922-2.467,2.949-3.77c1.055-1.337,2.433-2.575,3.004-4.107c2.367-6.304,4.406-12.728,6.701-19.058
	c4.359-12.028,8.832-24.012,13.222-36.024c2.786-7.626,5.507-15.271,8.265-22.9c3.684-10.179,7.369-20.354,11.07-30.52
	c1.714-4.704,3.58-9.351,5.172-14.095c0.975-2.904,2.244-4.382,5.609-3.156c1.633,0.596,3.601,0.396,5.408,0.316
	c0.713-0.035,1.883-0.582,2.02-1.113c0.756-2.872,1.251-5.811,1.928-9.172c4.676-1.828,6.613-5.237,6.029-10.883
	c-0.081-0.772,1.434-1.755,2.278-2.57c1.45-1.399,3.231-2.551,4.37-4.164c2.002-2.835,3.768-5.862,5.357-8.953
	c1.203-2.35,1.976-4.92,3.261-8.207c1.077-0.995,3.146-2.607,4.796-4.57c0.741-0.883,1.313-3.113,0.816-3.628
	c-2.981-3.092-2.097-6.302-0.964-9.688c0.22-0.658,0.043-1.492-0.08-2.225c-1.089-6.363,0.938-10.682,6.448-14.064
	c6.536-4.011,12.917-8.006,20.782-9.471c4.672-0.871,6.87-5.369,8.095-10.066c0.774-2.967,1.941-6.016,3.709-8.465
	c0.939-1.301,3.537-1.404,5.494-2.084c4.586-8.893,9.437-18.27,14.252-27.666c0.461-0.893,1.206-2.008,1.008-2.822
	c-2.25-9.264,2.795-16.981,5.197-25.247c1.04-3.569,2.188-7.113,3.451-10.609c3.479-9.634,7.305-19.152,10.506-28.875
	c4.239-12.871,7.687-26.007,12.092-38.816c4.215-12.252,8.846-24.395,14.016-36.272c3.035-6.967,7.33-13.412,11.328-19.923
	c3.98-6.482,45.086-21.812,44.952-22.052c1.303-0.738,2.706-1.337,3.884-2.237c4.005-3.062,8.041-6.105,11.813-9.444
	c0.949-0.842,1.374-2.771,1.317-4.173c-0.299-7.714,3.578-13.589,7.539-19.723c1.285-1.993,0.582-6.079-0.521-8.647
	c-2.89-6.734-5.497-14.019-10.136-19.439c-3.674-4.292-4.974-8.65-6.021-13.58c-1.592-7.488-7.977-12.479-9.781-20.296
	c-1.843-7.966-1.902-16.306-2-24.44c-0.175-14.764,10.155-34.68,21.094-44.028c13.363-11.423,31.83-11.417,47.895-7.089
	c16.584,4.469,31.268,11.766,39.29,27.576c10.478,20.657,9.183,43.011,0.146,63.765c-1.784,4.104-4.547,7.771-6.663,11.749
	c-0.967,1.812-1.269,3.974-2.175,5.823c-0.853,1.737-2.228,3.212-3.144,4.926c-0.633,1.182-1.23,2.592-1.158,3.864
	c0.048,0.783,1.293,1.634,2.157,2.211c2.196,1.458,5.068,2.313,6.623,4.25c4.269,5.317,7.964,11.09,11.961,16.629
	c2.123,2.937,3.764,6.343,8.584,5.766c2.204-0.263,4.59,1.027,6.896,1.604c8.631,2.164,17.279,4.259,25.887,6.511
	c6.635,1.733,13.521,2.99,19.748,5.709c5.83,2.548,11.097,6.528,16.348,10.253c9.07,6.438,12.824,16.328,16.543,26.259
	c1.92,5.141,4.568,10.004,6.691,15.078c3.207,7.661,6.127,15.441,9.38,23.08c3.63,8.51,7.972,16.749,11.146,25.419
	c4.139,11.322,6.764,23.23,11.324,34.358c3.195,7.796,4.865,16.407,10.689,23.118c3.029,3.487,5.875,7.344,7.818,11.496
	c1.334,2.842,1.504,6.523,1.252,9.755c-0.53,6.865-5.219,13.557,0.564,20.604c1.39,1.694-0.026,5.744-0.262,8.702
	c-0.346,4.334-0.712,8.668-1.25,12.979c-0.132,1.056-0.849,2.107-1.494,3.021c-3.072,4.34-6.186,8.661-9.348,12.939
	c-2.36,3.188-4.653,6.45-7.277,9.414c-3.226,3.641-6.963,6.836-10.104,10.539c-2.553,3.008-4.681,6.063-9.229,6.292
	c-1.766,0.087-3.728,1.313-5.137,2.55c-6.084,5.339-11.428,11.182-14.014,19.228c-2.043,6.357-7.632,9.938-12.571,13.905
	c-1.523,1.228-3.061,2.431-4.744,3.764c3.907,8.767,7.879,17.342,11.561,26.037c5.539,13.081,12.734,25.486,16.005,39.514
	c0.843,3.608,2.507,7.068,4.091,10.457c7.604,16.278,16.64,31.674,27.93,45.727c2.842,3.532,4.813,7.756,7.244,11.627
	c5.567,8.872,11.219,17.688,16.745,26.586c3.288,5.301,6.5,10.648,9.57,16.078c6.697,11.84,13.612,23.57,19.798,35.674
	c4.842,9.473,8.775,19.412,12.995,29.197c1.16,2.688,1.556,5.735,2.917,8.291c2.377,4.472-0.799,6.52-3.643,7.723
	c-11.312,4.779-22.744,9.305-34.281,13.524c-8.034,2.938-16.322,5.185-24.472,7.821c-6.252,2.021-12.461,4.16-18.689,6.259
	c-3.212,1.081-6.347,2.554-9.643,3.173c-2.477,0.463-5.157-0.152-7.133-0.258c-1.161-5.905-2.188-11.144-3.219-16.379
	c-0.47,0.059-0.937,0.115-1.405,0.18c-0.808,6.403-1.794,12.802-2.34,19.23c-0.262,3.107-1.363,4.123-4.468,4.155
	c-9.036,0.087-18.073,0.413-27.107,0.817c-4.041,0.18-5.413,2.132-3.931,5.865c2.708,6.814,3.642,13.369,0.609,20.496
	c-0.847,1.98,1.048,5.205,1.857,7.807c4.279,13.732,2.607,27.905,2.828,41.882c0.354,22.487,0.48,45-0.301,67.466
	c-0.357,10.248-3.113,20.411-4.771,30.614c-1.085,6.665-2.02,13.363-3.265,19.999c-0.633,3.371-1.266,6.923-2.828,9.911
	c-3.82,7.317-4.203,15.292-5.348,23.152c-0.153,1.038-0.225,2.105-0.535,3.094c-0.927,2.926-0.307,4.545,3.101,4.95
	c11.51,1.357,15.579,9.832,18.177,19.533c0.346,1.28,0.679,3.044,0.089,4.02c-3.516,5.791-6.536,12.186-11.229,16.861
	c-4.061,4.047-6.082,7.303-5.223,13.205c0.912,6.264,2.086,13.628-0.323,18.934c-2.607,5.73,0.148,10.697-1.169,16.025
	c-1.346,5.451-4.131,7.613-8.803,9.598c-14.968,6.367-30.596,5.641-46.197,4.813c-6.881-0.366-13.748-1.893-17.921-8.457
	c-1.714-2.693-2.739-5.33-0.974-8.688c2.352-4.469,4.189-9.221,6.114-13.902c2.069-5.043,3.699-10.19,6.695-14.907
	c1.921-3.027,2.128-7.138,2.722-9.349c-4.116-6.413-7.711-12.015-10.846-16.9c-1.301,3.756-3.049,8.279-4.418,12.914
	c-1.374,4.681-5.006,6.45-9.107,7.551c-8.424,2.254-16.939,4.187-25.356,6.469c-7.699,2.088-15.187,5.274-22.997,6.529
	c-12.84,2.061-25.771,4.412-38.895,3.197c-3.699-0.342-7.324-1.467-11.619-2.363c0.865-2.327,1.567-4.205,2.295-6.158
	c-5.238-4.486-5.623-10.656-1.251-16.215c5.675-7.203,12.345-12.319,21.737-14.048c3.408-0.627,6.318-3.946,9.854-6.304
	c-2.123-1.389-3.187-1.966-4.112-2.711c-2.302-1.849-3.027-4.078-0.226-5.886c3.11-2.007,6.46-3.673,9.821-5.237
	c4.861-2.264,4.726-2.646,2.824-7.611c-1.062-2.769-1.363-6.404-0.523-9.21c1.451-4.844,1.608-9.083-1.593-13.163
	c-7.163-9.128-6.409-20.175-7.044-30.729c-0.763-12.706-0.155-25.501-1.176-38.173c-1.098-13.692-3.393-27.29-5.158-40.923
	c-1.279-9.859-2.422-19.732-3.871-29.567c-0.568-3.841-2.066-7.546-2.67-11.385c-0.856-5.466-1.303-10.993-1.868-16.495
	c-0.423-4.045-0.938-8.096-1.083-12.158c-0.193-5.403,0.123-10.824-0.121-16.222c-0.35-7.772-1.972-15.613-1.311-23.275
	c1.088-12.631-5.371-22.926-8.965-34.044c-5.567-17.223-9.848-34.609-11.333-52.686c-1.681-20.484-3.376-40.97-5.528-61.405
	c-2.076-19.665-5.09-39.234-7.019-58.91c-1.161-11.832-0.702-23.817-1.61-35.685c-0.577-7.569,3.309-13.907,4.345-20.969
	c0.194-1.326,0.503-2.633,0.747-3.95c0.754-4.042,0.12-8.399,3.453-11.817c0.967-0.991,0.983-3.051,1.139-4.648
	c0.297-3.001,0.238-6.041,0.588-9.036c0.342-2.944,0.963-5.305-2.635-7.348c-4.196-2.381-4.192-7.934-1.842-12.384
	c1.168-2.211,0.655-5.251,1.275-7.823c1.042-4.334,1.967-8.769,3.67-12.855c3.357-8.034,2.67-16.508,3.474-24.829
	c0.594-6.109,2.195-12.321,1.575-18.304c-0.797-7.68,1.798-14.289,3.637-21.304c1.027-3.931,0.807-8.189,1.108-12.302
	c0.032-0.415-0.104-0.94-0.353-1.263c-3.499-4.511-7.032-8.998-10.972-14.022c-1.907,4.099-4.331,7.934-5.501,12.116
	c-1.979,7.113-4.807,13.633-10.138,18.791c-2.991,2.894-3.337,6.157-2.398,9.841c1.036,4.063,0.205,7.219-3.524,9.718
	c-2.519,1.685-5.339,3.662-4.27,7.592c0.071,0.265,0.029,0.676-0.135,0.878c-3.721,4.545-7.438,9.086-11.204,13.589
	c-3.069,3.676-6.183,7.31-9.303,10.945c-1.142,1.331-2.114,3.018-3.565,3.838c-7.192,4.063-11.518,10.895-16.896,16.744
	c-2.284,2.48-5.303,4.736-8.431,5.875c-4.242,1.544-5.819,4.367-7.142,8.276c-0.782,2.316-3.158,4.082-4.734,6.159
	c-0.812,1.07-2.318,2.7-2.007,3.354c1.721,3.6-0.664,5.244-2.992,6.566c-3.029,1.72-3.354,3.692-2.14,6.76
	c3.235,8.203,6.267,16.489,9.29,24.774c2.512,6.885,4.975,13.787,7.326,20.731c2.273,6.73,5.201,8.523,12.287,7.347
	c1.922-0.321,3.898-0.28,5.84-0.52C486.371,573.646,488.27,573.268,490.502,572.903z M651.533,714.662
	c-0.525-0.033-1.046-0.065-1.573-0.1c-1.233,2.541-3.555,5.096-3.521,7.619c0.164,10.602-0.465,21.559,2.008,31.701
	c3.336,13.693,1.33,27.225,1.448,40.753c0.064,7.231-1.421,14.409,0.364,21.741c0.678,2.787,0.607,6.968-1.031,8.832
	c-2.993,3.402-2.836,6.021-1.068,9.611c1.668,3.381,2.629,6.828,0.803,10.826c-0.893,1.961-0.125,4.803,0.237,7.19
	c0.512,3.356,1.33,6.665,2.036,9.992c0.241,1.119,0.623,2.209,0.788,3.337c0.388,2.603,0.677,5.223,1.024,7.838
	c0.264,1.949,0.012,4.231,0.957,5.777c2.699,4.404,4.565,8.833,3.634,14.125c-0.173,0.979-0.013,2.127,0.327,3.078
	c3.582,9.977,7.195,19.945,10.915,29.872c0.415,1.112,1.524,1.968,2.853,3.612c0-6.016,0.706-10.958-0.125-15.626
	c-3.047-17.072-6.769-34.024-9.905-51.084c-1.825-9.929-3.645-19.805-0.743-30.091c1.262-4.482,0.016-9.744-0.465-14.612
	c-0.322-3.266-1.72-6.445-1.905-9.705c-0.772-13.464-0.978-26.967-1.944-40.415c-1.119-15.532-2.818-31.024-4.281-46.532
	C652.123,719.818,651.814,717.24,651.533,714.662z M753.969,365.508c-2.568,10.915-6.64,20.076-5.711,30.307
	c0.199,2.204,0.055,4.704-0.797,6.693c-2.965,6.92-6.164,13.744-9.574,20.452c-1.313,2.575-2.105,4.604-0.234,7.31
	c2.594,3.75,4.004,7.795,3.591,12.711c-0.446,5.3,1.096,6.156,6.388,5.403c1.049-0.148,2.118-0.157,3.164-0.312
	c5.529-0.802,9.953-2.984,12.242-8.61c1.229-3.026,3.201-5.757,4.883-8.597c1.53-2.587,3.487-4.994,4.607-7.75
	c1.41-3.471,2.008-7.26,3.246-10.81c1.051-3.012,1.266-5.508-0.769-8.425c-1.319-1.896-1.974-4.891-1.614-7.19
	c0.637-4.06-0.92-6.551-3.819-8.921c-6.39-5.22-12.198-10.912-13.978-19.476C755.486,367.773,755.043,367.32,753.969,365.508z
	 M407.5,549.138c2.513-2.988,5.085-4.761,5.721-7.063c1.371-4.967,2.245-10.207,2.254-15.338c0.004-1.773-0.799-2.84,0.658-4.769
	c1.543-2.043,3.047-5.941,2.097-7.698c-2.704-5.015-6.661-9.346-11.087-15.221c-1.578,5.08-2.799,9.016-4.1,13.209
	c-4.388-0.234-4.937,0.442-4.96,7.476c-4.153,0.286-4.728,2.482-3.673,4.71c-1.714,2.754-3.152,4.886-4.402,7.12
	c-1.288,2.314-1.819,5.442-3.697,6.943c-3.037,2.422-2.978,4.743-2.105,7.096C392.705,546.891,400.685,548.102,407.5,549.138z
	 M680.221,1009.084c-0.372,0-0.742,0.002-1.115,0.002c-0.394,1.006-0.923,1.977-1.16,3.017c-1.166,5.11-3.616,8.691-9.219,10.022
	c-2.562,0.613-4.975,2.687-6.949,4.613c-0.963,0.941-0.211,3.764-1.188,4.538c-3.78,3.006-0.943,3.979,1.226,5.397
	c2.475,1.617,6.189,2.822,7.069,5.094c2.198,5.658,5.704-0.063,8.059,1.619c0.87-1.256,2.392-2.453,2.506-3.77
	c0.788-9.166,1.324-18.35,1.819-27.536C681.321,1011.104,680.589,1010.085,680.221,1009.084z M764.279,562.17
	c-0.216-1.515-0.18-3.166-0.711-4.607c-1.257-3.392-3.055-6.597-4.15-10.031c-2.814-8.838-5.274-17.787-8.08-26.629
	c-0.753-2.375-2.665-1.955-3.66-0.179c-0.624,1.117-0.667,2.883-0.314,4.175c2.875,10.592,6.08,21.092,8.809,31.719
	C757.271,560.891,759.023,563.302,764.279,562.17z M459.675,556.174c-1.628-4.276-3.262-8.634-4.943-12.968
	c-1.905-4.91-3.77-9.843-5.848-14.683c-0.458-1.062-1.734-1.77-2.637-2.642c-0.592,1.199-1.615,2.379-1.68,3.606
	c-0.118,2.227,0.196,4.506,0.579,6.721c0.917,5.333,1.907,10.652,3.029,15.942c0.388,1.83,0.847,4.75,1.957,5.116
	C453.145,558.272,456.781,560.223,459.675,556.174z M432.634,552.257c-0.824-6.381-1.355-12.015-2.418-17.546
	c-0.249-1.298-2.176-2.926-3.543-3.154c-1.062-0.172-3.294,1.4-3.547,2.52c-1.229,5.483-1.967,11.074-2.901,16.76
	C424.837,551.361,428.346,551.767,432.634,552.257z M440.593,555.579c0-2.478,0.082-4.717-0.02-6.947
	c-0.224-5.16-0.541-10.319-0.805-15.476c-0.15-2.904,0.098-5.896-0.553-8.68c-0.293-1.265-2.341-2.117-3.589-3.154
	c-0.499,1.354-1.49,2.738-1.415,4.061c0.566,9.905,1.344,19.796,2.069,29.895C437.792,555.383,438.951,555.463,440.593,555.579z
	 M755.252,566.281c-0.963-3.938-1.873-7.649-2.781-11.361c-0.493,0.094-0.986,0.188-1.475,0.275
	c-2.362,4.094-1.017,8.106,0.54,12.305C753.186,566.96,754.533,566.521,755.252,566.281z" style="fill: rgb(36, 36, 40);"></path>
</svg>