<svg version="1.1" id="Layer_1" xmlns="http://www.w3.org/2000/svg" xmlns:xlink="http://www.w3.org/1999/xlink" x="0px" y="0px" width="1200px" height="1200px" viewBox="0 0 1200 1200" enable-background="new 0 0 1200 1200" xml:space="preserve">
<path d="M775.586,711.271l-19.668-1.888l-29.646-51.198c0,0,5.39-6.743,6.737-14.556c1.35-7.816,5.389-14.282,6.734-17.247
	c1.35-2.965-8.354-15.9-26.135-27.489c-1.943-1.265-4.585-17.785-7.817-21.828c-3.234-4.041-6.739-3.234-6.739-3.234
	s2.427-36.381-1.077-44.465c-0.966-2.224,5.121,2.695,3.769-7.547c-0.535-4.085-3.5-11.05-3.5-11.05s-3.771-56.591-18.596-85.697
	c-1.044-2.053,1.889-7.278-0.535-10.241c-2.426-2.961,3.502-9.701-1.89-11.586c-5.391-1.89-5.12-18.327-3.772-20.753
	c1.35-2.424,4.582-7.814,1.887-11.047c-2.696-3.234-6.469-7.548-7.278-11.586c-0.807-4.044-0.269-19.678-0.269-19.678
	s5.393-14.281-2.154-34.224c-3.198-8.451-2.695-39.614-27.488-52.014c-6.823-3.41-17.787-9.159-17.787-9.159
	s-50.934-19.942-53.09-21.561c-2.152-1.614-7.273-5.658-7.004-8.893c0.268-3.232-8.626-12.666-17.249-12.396
	c-3.243,0.103-3.506-40.424-3.506-40.424s17.52,2.963,20.755-24.521c0.85-7.25-1.89-12.13-4.582-11.591
	c-2.695,0.539,4.043-26.948,1.617-33.685s-7.815-25.335-38.537-38.269c-4.826-2.03-18.596-5.661-24.527-1.615
	c0,0-47.967,2.96-46.08,42.308c0.273,5.711-0.053,33.954-0.053,33.954s-10.188,1.351,0,21.022c3.14,6.066,8.947,12.934,8.947,12.934
	s-2.693,16.171,13.473,29.646c3.37,2.808,2.157,24.257,2.157,24.257s-11.856,8.354-15.362,20.479
	c-1.493,5.156-7.006,7.004-12.127,7.814c-5.121,0.807-33.578,9.156-47.428,22.907c-4.625,4.589-21.831,10.777-25.876,65.215
	c-0.56,7.523,6.74,42.313,6.74,42.313s3.235,23.174,1.081,26.676c-2.16,3.504-4.856,14.017-2.16,16.438
	c2.695,2.426-2.966,11.051,1.079,18.06c1.429,2.48-1.346,9.703-1.346,9.703s-2.158,7.546-2.158,9.97
	c0,2.423,2.158,4.311,2.158,4.311s0.81,6.199-0.541,9.162c-1.35,2.965-2.963,8.355-1.887,12.395
	c1.078,4.043,5.659,11.591,5.659,11.591l2.155,60.906l3.505,6.467l2.965,48.506c0,0-3.507,6.201,0.537,12.668
	c1.285,2.062-3.502,34.494-4.58,38.809c-1.078,4.313-0.539,6.33,3.098,11.182c1.58,2.106,10.711,17.586,11.923,20.414
	c1.213,2.828,7.621,3.465,14.96,5.054c2.061,0.443,15.156,2.424,15.156,0c0-2.428-0.401-5.663-5.053-7.68
	c-3.315-1.443,5.46-7.075,5.46-7.075s8.486,22.03,9.695,62.451c0.491,16.21,7.282,69.53,15.364,84.488
	c3.406,6.301,4.449,36.379,1.619,41.634c-2.828,5.256-4.045,18.597-4.045,18.597s18.599,39.614,33.552,121.271
	c1.245,6.795-2.555,5.119,1.216,14.82c3.771,9.699,11.315,12.664,11.315,12.664v16.173c0,0-19.403,28.04-26.411,37.726
	c-2.687,3.72-12.664,7.278-14.281,23.177c-0.548,5.391,1.078,13.747,28.833,13.747c4.048,0,31.532,3.771,33.419-5.93l15.095-1.078
	l1.076,15.359c0,0,10.24-0.805,14.553,1.889c4.312,2.693,5.39,10.777,24.524,10.777c6.023,0,37.189,0,37.189-15.629
	c0-3.246,0-17.518-14.552-27.489c-5.247-3.593-8.356-17.515-8.891-22.907c-0.542-5.387-5.663-10.24-5.663-10.24l2.966-23.17
	c0,0,6.196,5.656,13.203-6.47c1.575-2.726,6.199-16.44,0.27-17.249c-1.161-0.16-1.848-0.183-2.249-0.135
	c1.24-4.779,8.873-34.623,10.604-52.686c0.58-6.049,1.887-24.791,1.887-24.791l5.662-2.426v10.777l67.908,7.008
	c0,0,1.617-24.259,1.617-28.839c0-4.578-2.965-19.94-2.965-19.94l12.398,11.858c0,0,35.57,0.271,36.652-0.807
	c1.078-1.078,10.508-5.124,10.508-5.124l27.487,17.247l57.944-12.393C828.142,926.597,786.636,744.419,775.586,711.271z
	 M409.349,669.771l-0.268-0.541l-1.617-9.293c0,0,3.908,4.309,3.771,6.734C411.101,669.096,409.349,669.771,409.349,669.771z
	 M422.555,668.557c-0.135-0.672,1.078-15.225,1.078-15.225l2.695,15.898C426.328,669.23,422.688,669.229,422.555,668.557z
	 M543.016,899.916c0,19.398-2.427,56.59-2.427,54.975c0-1.617-8.084-53.764-8.084-65.082c0-11.319-4.684-17.786-4.684-17.786
	s-0.975-2.83,2.461-9.3c3.434-6.467-3.84-14.146-2.225-20.615c1.617-6.465,4.447-18.192,4.447-21.423c0,0,7.68,21.019,7.68,31.933
	s2.831,15.361,2.831,15.361S543.016,880.509,543.016,899.916z M667.523,669.77c0,0-21.56,139.595-22.906,149.026
	c-1.351,9.432-28.57,102.41-28.57,102.41s-0.232-51.973,0.544-58.483c1.346-11.316-4.441-62.032-1.889-68.451
	c17.785-44.736,22.637-127.467,25.33-142.829c2.699-15.362-3.855-56.321-2.154-56.321c10.482,0,9.432-17.247,9.432-17.247
	l-1.346-39.076h6.466c0,0,7.816,15.897,11.857,22.095c4.046,6.199,9.163,28.028,7.545,29.649
	c-1.617,1.618,3.776,11.048,5.122,12.663c1.344,1.617,9.162,23.715,11.859,29.643c2.691,5.929,15.627,9.435,15.627,9.435
	s-1.345,1.619-2.693,2.154c-1.345,0.537,9.699,12.935,9.699,12.935l-18.322,19.135L667.523,669.77z M698.111,693.351l-5.259-4.176
	c-0.135-0.407,16.977-25.333,16.977-25.333L698.111,693.351z M707.811,702.647c0,0,8.221-25.196,8.221-31.8l5.794,32.477
	L707.811,702.647z M731.257,703.324v-2.833c0-0.774-5.58-30.085-6.033-31.966c-0.015-0.043-0.029-0.091-0.029-0.104
	c0-0.02,0.01,0.025,0.029,0.104c0.666,1.961,15.33,34.122,15.33,34.122L731.257,703.324z" style="fill: rgb(36, 36, 40);"></path>
</svg>