<svg version="1.1" id="Layer_1" xmlns="http://www.w3.org/2000/svg" xmlns:xlink="http://www.w3.org/1999/xlink" x="0px" y="0px" width="1200px" height="1200px" viewBox="0 0 1200 1200" enable-background="new 0 0 1200 1200" xml:space="preserve">
<path fill-rule="evenodd" clip-rule="evenodd" d="M628.317,1052.753c-7.111-8.478-7.869-18.394-9.211-28.08
	c-0.34-2.425,0.923-5.077,0.564-7.498c-1.051-7.204-2.623-14.327-3.843-21.515c-1.644-9.672-3.204-19.366-4.72-29.057
	c-1.45-9.272-2.92-18.546-4.183-27.838c-1.045-7.666-1.766-15.378-2.708-23.061c-0.518-4.246-1.342-8.463-1.757-12.721
	c-1.007-10.336-1.95-20.684-2.698-31.041c-0.184-2.64-0.023-5.508,0.834-7.976c2.146-6.198,1.398-12.243-1.357-17.726
	c-3.396-6.77-3.659-14.035-5.067-21.162c-1.841-9.313-4.639-18.436-6.362-27.766c-1.937-10.459-2.846-21.105-4.768-31.562
	c-1.078-5.871-2.812-11.73-5.119-17.229c-5.492-13.098-8.279-26.632-8.242-40.802c0.004-4.174-0.273-8.301-5.766-10.738
	c-0.598,5.364-1.232,10.291-1.677,15.233c-1.624,18.133-3.433,36.247-4.709,54.401c-1.554,22.042-3.228,44.099-3.802,66.179
	c-0.866,33.193-0.824,66.407-1.177,99.614c-0.015,1.271-0.123,2.536-0.208,4.318c-17.496,0-34.843,0-51.779,0
	c0,5.704-0.146,11.514,0.028,17.313c0.56,18.712,1.732,37.42,1.699,56.125c-0.023,11.604-1.639,23.218-2.853,34.795
	c-0.891,8.468-6.783,13.14-13.829,16.696c-0.561,0.279-1.032,0.736-1.535,1.106c6.739,12.201,2.025,29.937-9.632,31.374
	c0.315,10.604,0.367,21.357,1.098,32.061c0.25,3.62,2.496,7.08-0.066,10.734c-0.434,0.626-0.451,1.999-0.061,2.689
	c2.566,4.563-0.208,6.134-3.9,6.851c-8.553,1.648-16.904,4.728-25.918,3.028c-4.455-0.838-9.256-0.203-13.56-1.425
	c-5.968-1.696-12.152-3.739-17.192-7.171c-2.543-1.733-3.457-6.766-3.933-10.458c-1.078-8.353,2.661-15.785,5.38-23.434
	c2.688-7.593,5.199-15.337,6.696-23.221c0.665-3.524,0.519-7.845-3.037-11.169c-3.57-3.345-5.012-7.991-4.381-13.068
	c0.755-6.089,3.315-8.067,13.48-9.514c-1.46-1.705-2.233-3.433-3.509-3.977c-8.793-3.757-12.133-10.492-13.042-19.799
	c-1.606-16.346-0.476-32.526,1.013-48.758c1.29-14.1,2.416-28.218,3.659-42.889c-1.63-0.078-3.319-0.224-5.017-0.229
	c-9.791-0.025-19.63-0.622-29.36,0.134c-10.866,0.841-20.474-1.66-29.465-7.49c-1.72-1.117-3.707-1.823-6.161-3.003
	c0.363-7.676,0.631-15.769,1.154-23.848c0.414-6.446,1.361-12.856,1.686-19.3c1.074-21.101,1.889-42.209,2.973-63.31
	c0.814-15.775,1.62-31.557,2.935-47.297c1.634-19.534,3.061-39.137,5.99-58.499c1.644-10.847,5.921-21.341,9.59-31.794
	c0.649-1.851,3.983-3.384,6.33-3.893c5.751-1.236,11.629-2.079,17.497-2.491c2.877-0.205,5.835,0.951,8.779,1.385
	c4.855,0.716,9.754,1.187,14.577,2.067c3.362,0.614,7.432,0.631,8.308,5.856c1.328-2.626,2.666-5.244,3.975-7.875
	c0.881-1.762,1.922-3.48,2.497-5.339c0.376-1.205,0.414-3.631-0.038-3.8c-4.418-1.656-2.506-5.37-2.241-7.861
	c0.843-8.061,2.091-16.104,3.729-24.042c1.658-8.011-0.692-15.497-2.511-22.953c-1.624-6.683-4.347-13.141-7.04-19.508
	c-1.061-2.499-3.688-4.296-5.03-6.729c-4.86-8.857-9.755-17.713-14.055-26.842c-1.592-3.381-1.94-7.488-2.237-11.315
	c-1.003-13.159-1.836-26.337-2.516-39.524c-0.291-5.634-0.051-11.295-0.908-16.544c-0.801-1.894-1.997-3.721-2.309-5.691
	c-0.602-3.752-0.852-7.579-0.951-11.38c-0.047-1.838,0.552-3.692,0.876-5.536c0.339-1.882,1.159-3.81,0.971-5.636
	c-1.333-12.952-0.457-25.951-1.013-38.917c-0.301-6.896-1.932-14.127-0.367-20.573c1.041-4.28-2.242-9.709,3.146-13.388
	c1.704-1.163,1.766-5.247,1.969-8.034c1.017-13.956,1.271-27.991,2.877-41.876c1.827-15.807,4.673-31.504,7.348-47.202
	c0.739-4.331,3-8.494-0.301-12.675c-0.246-0.306-0.264-1.01-0.095-1.394c2.138-4.717,3.702-9.849,6.622-14.026
	c9.033-12.917,21.972-20.929,35.508-28.669c11.025-6.304,22.909-10.425,33.991-16.326c7.917-4.216,15.929-8.587,22.89-14.151
	c4.22-3.367,6.877-8.944,9.565-13.892c2.021-3.726,4.353-5.694,9.335-4.517c0.49-10.261,1.041-20.104,1.361-29.955
	c0.052-1.552-0.48-3.525-1.475-4.653c-7.582-8.584-10.615-18.672-9.866-29.884c0.146-2.134,1.507-4.972,3.212-6.036
	c2.802-1.75,3.141-3.971,3.269-6.672c0.312-6.354,0.25-12.759,1.056-19.051c1.906-14.869,11.426-24.581,23.482-31.91
	c5.078-3.087,10.993-4.987,16.725-6.761c14.539-4.488,27.346-0.063,38.946,8.699c11.766,8.878,18.383,21.458,22.282,35.131
	c1.7,5.951,0.123,12.875-0.169,19.351c-0.26,5.798-0.796,11.584-1.187,17.377c-0.029,0.457,0.314,0.956,0.244,1.396
	c-1.418,8.442-1.922,17.191-4.582,25.23c-2.549,7.713-7.306,14.7-11.168,21.97c-3.292,6.198-6.692,12.343-8.99,16.571
	c5.585,8.066,9.781,14.323,14.189,20.427c3.194,4.425,6.538,8.759,10.084,12.9c1.183,1.378,3.198,2.042,4.852,3.01
	c7.965,4.675,15.972,9.178,24.396,13.094c8.154,3.791,15.977,8.798,22.947,14.497c8.449,6.914,13.739,16.314,15.844,27.258
	c1.3,6.771,1.276,14.292,4.414,20.084c3.654,6.739,3.611,13.807,5.364,20.666c2.383,9.34,4.44,18.764,6.552,28.17
	c1.111,4.967,1.883,10.014,3.184,14.923c0.292,1.111,2.129,1.809,2.123,2.833c0.477,2.876,1.111,5.737,1.404,8.629
	c0.739,7.104,1.026,14.271,2.049,21.333c1.008,6.938,3.113,13.72,3.975,20.667c0.782,6.258,0.415,12.646,0.772,18.962
	c0.565,9.978,1.546,19.938,1.908,29.92c0.212,5.865-0.532,11.763-0.679,17.647c-0.184,7.373,0.07,14.761-0.362,22.113
	c-0.335,5.685-1.47,11.319-2.19,16.981c-0.259,2.039-0.818,4.177-0.457,6.134c2.379,12.84,0.156,25.408-1.756,38.032
	c-0.349,2.287,0.301,4.71,0.258,7.065c-0.061,2.885-0.391,5.767-0.568,8.654c-0.279,4.437-0.887,8.893-0.722,13.316
	c0.321,8.552,1.056,17.09,1.677,25.629c0.23,3.173,0.801,6.326,0.904,9.498c0.254,7.592-3.801,13.685-7.512,19.758
	c-1.446,2.362-1.837,3.641,0.137,5.923c1.921,2.223,2.82,5.291,4.408,7.839c4.031,6.491,8.374,12.793,12.25,19.372
	c2.303,3.919,3.424,8.603,6.029,12.265c4.554,6.405,5.214,6.285,13.211,3.791c2.166-0.676,9.01,4.468,9.113,6.865
	c0.07,1.599-0.047,3.224,0.188,4.8c0.208,1.38,0.783,2.703,1.386,4.674c2.708-0.32,5.515-0.605,8.313-0.994
	c2.821-0.394,4.658,0.019,5.595,3.403c2.771,10.032,5.799,20.008,9.063,29.889c4.141,12.5,8.449,24.938,12.98,37.301
	c5.529,15.094,11.779,29.942,16.975,45.153c6.636,19.406,12.208,39.184,18.873,58.579c3.579,10.412,8.396,20.414,12.923,30.484
	c0.735,1.637,2.84,2.662,4.927,4.512c-1.668,0.779-2.803,1.512-4.046,1.854c-18.505,5.154-36.972,10.435-55.554,15.302
	c-16.837,4.419-33.722,8.714-50.729,12.438c-17.981,3.934-36.114,7.24-54.225,10.561c-3.537,0.646-3.979,1.596-3.108,5.016
	c2.266,8.893,4.64,17.864,5.592,26.947c0.606,5.831-1.353,11.901-1.932,17.889c-0.504,5.265-1.678,10.368,2.882,15.168
	c4.446,4.682,2.077,10.776-3.951,13.192c-1.243,0.499-3.085,2.623-2.835,3.179c0.838,1.839,2.82,4.875,3.791,4.677
	c7.168-1.49,9.381,3.888,11.774,8.32c3.745,6.942,6.142,14.521,13.663,18.962c2.878,1.7,4.014,6.222,6.834,8.177
	c6.52,4.526,13.555,8.306,20.422,12.321c3.971,2.314,6.604,5.056,7.961,9.984c1.338,4.877-0.208,6.48-2.991,10.213
	c-3.109,4.186-6.185,3.83-9.5,3.985c-17.789,0.847-35.503,0.2-52.812-4.631c-1.513-0.421-3.283-0.873-4.301-1.924
	c-5.591-5.758-12.891-4.749-19.818-5.452c-9.43-0.957-18.858-2.004-28.227-3.426c-1.281-0.195-2.926-2.675-3.15-4.271
	c-0.938-6.599-1.711-13.254-1.908-19.906c-0.122-4.178,2.139-8.768,1.018-12.473c-1.078-3.563-5.299-6.096-7.805-9.342
	c-1.103-1.427-1.742-3.447-1.965-5.274C616.968,1057.247,618.668,1055.172,628.317,1052.753z M708.541,665.771
	c-0.489,0.033-0.975,0.064-1.464,0.102c-2.332,9.813-4.668,19.628-6.985,29.445c-0.065,0.291-0.065,0.771,0.112,0.931
	c3.576,3.187,2.167,8.181,4.348,11.817c0.669,1.116,2.063,2.446,3.198,2.524c6.058,0.414,12.133,0.419,18.204,0.647
	c3.255,0.127,3.867-1.387,2.524-3.981c-1.041-2.03-2.892-3.783-3.435-5.899c-1.36-5.294-2.854-10.319-7.804-13.503
	c-0.688-0.445-1.2-1.371-1.497-2.177C713.304,679.054,710.93,672.41,708.541,665.771z M652.659,520.197
	c2.891,10.602,5.75,21.106,8.629,31.601c0.075,0.266,0.537,0.427,0.621,0.694c0.861,2.84,1.715,5.688,2.506,8.551
	c0.603,2.186,1.093,4.403,1.672,6.599c0.396,1.519,0.956,3,1.267,4.53c0.929,4.494,1.813,8.996,2.624,13.513
	c0.729,4.069,1.459,8.144,1.959,12.241c0.551,4.453,0.838,8.935,1.234,13.407c0.457,0.09,0.908,0.184,1.361,0.275
	c1.012-3.097,3.861-5.271,3.184-9.274c-0.387-2.27-0.033-4.655-0.053-6.994c-0.014-1.487,0.213-3.077-0.216-4.445
	c-3.076-9.65-7.292-18.922-8.46-29.178c-0.564-4.979-2.473-9.792-3.362-14.754c-0.839-4.613-0.919-9.365-1.732-13.983
	c-0.523-2.956-2.124-5.72-2.629-8.671C660.524,520.009,658.711,518.009,652.659,520.197z M679.765,715.376
	c0.682,0.392,1.365,0.779,2.053,1.168c1.758-1.476,4.521-2.654,5.073-4.493c1.544-5.157,2.585-10.555,3.004-15.922
	c0.245-3.19,0.128-7.185-4.605-7.934c3.669-7.036-2.647-12.227-2.892-18.693c-1.31,0.772-2.544,1.719-2.549,2.685
	C679.727,686.58,679.765,700.979,679.765,715.376z" style="fill: rgb(36, 36, 40);"></path>
</svg>